<svg xmlns="http://www.w3.org/2000/svg" width="39" height="35" viewBox="0 0 39 35" fill="none">
<g clip-path="url(#clip0_205_2116)">
<path fill-rule="evenodd" clip-rule="evenodd" d="M5.76595 7.26516C5.64304 8.41012 6.47925 8.98613 7.44438 8.61809C7.96446 7.35826 6.67649 6.37604 5.76595 7.26516Z" fill="#87968F"/>
<path fill-rule="evenodd" clip-rule="evenodd" d="M24.5318 14.3726C22.5724 14.815 21.2811 16.3099 21.4113 18.7452C21.5992 22.2511 22.9732 21.7929 20.8943 24.5309C20.189 25.4599 17.9624 27.7944 19.3913 29.5287C20.5051 30.881 22.5335 31.8542 24.7947 30.7725C27.1854 29.6285 30.0209 25.2607 31.0721 21.9828C32.4997 17.5319 28.5594 13.4627 24.5315 14.3726H24.5318Z" fill="#87968F"/>
<path fill-rule="evenodd" clip-rule="evenodd" d="M12.1668 6.06124C9.98404 6.37703 8.58221 7.61543 7.71419 9.01056C6.63587 10.7439 6.9972 13.1879 7.51159 15.1835C8.41644 18.693 10.329 23.6948 14.1068 23.4581C15.8502 23.3489 18.1234 22.2585 17.4322 19.6615C16.7323 17.033 15.166 16.2132 15.9872 14.2642C16.6753 12.631 17.9549 10.6511 17.042 8.54841C16.2413 6.70421 14.2072 5.76654 12.1671 6.06124H12.1668Z" fill="#87968F"/>
<path fill-rule="evenodd" clip-rule="evenodd" d="M22.9404 9.6831C20.5845 10.737 21.851 14.909 24.0776 13.982C26.2497 13.0778 25.2276 8.6597 22.9404 9.6831Z" fill="#87968F"/>
<path fill-rule="evenodd" clip-rule="evenodd" d="M16.268 2.12636C13.7436 3.14876 14.7868 7.30131 17.0499 6.39177C17.8453 6.07229 18.5405 5.01875 18.4417 3.78839C18.3516 2.6682 17.4849 1.63341 16.2676 2.12602L16.268 2.12636Z" fill="#87968F"/>
<path fill-rule="evenodd" clip-rule="evenodd" d="M12.4578 2.33455C10.8795 3.153 11.86 5.85217 13.3576 5.26947C14.89 4.67338 13.9273 1.57269 12.4578 2.33455Z" fill="#87968F"/>
<path fill-rule="evenodd" clip-rule="evenodd" d="M27.1898 10.6815C25.3667 11.1243 25.6614 14.0883 27.2959 13.6576C28.9566 13.2203 28.829 10.2834 27.1898 10.6815Z" fill="#87968F"/>
<path fill-rule="evenodd" clip-rule="evenodd" d="M9.5662 2.996C8.06123 3.64199 9.15695 6.18878 10.6063 5.6533C11.8678 5.18714 10.9623 2.39689 9.5662 2.996Z" fill="#87968F"/>
<path fill-rule="evenodd" clip-rule="evenodd" d="M29.8631 12.0249C28.0768 12.5396 28.4214 15.1581 30.057 14.6129C31.5378 14.1189 31.4591 11.5648 29.8631 12.0249Z" fill="#87968F"/>
<path fill-rule="evenodd" clip-rule="evenodd" d="M7.2326 4.70765C7.0953 4.81247 7.12678 4.66411 6.92652 4.98728C6.39305 5.8486 7.42281 7.50292 8.56376 6.95037C9.0989 6.69117 9.09121 5.77593 8.78244 5.19424C8.46966 4.60518 7.76842 4.29843 7.2326 4.70765Z" fill="#87968F"/>
<path fill-rule="evenodd" clip-rule="evenodd" d="M32.1534 16.6914C30.987 17.1596 31.3423 18.7181 32.6232 18.2864C33.8697 17.8665 33.573 16.1214 32.1534 16.6914Z" fill="#87968F"/>
<path fill-rule="evenodd" clip-rule="evenodd" d="M32.3571 14.031C30.2738 13.8588 30.0504 16.0808 31.0986 16.3681C31.8541 16.5751 32.4164 16.0108 32.6337 15.6227C33.0798 14.8263 32.7868 14.462 32.3571 14.0313V14.031Z" fill="#87968F"/>
</g>
<defs>
<clipPath id="clip0_205_2116">
<rect width="39" height="35" fill="white"/>
</clipPath>
</defs>
</svg>